HIERARCHY
ROOT Hips
{
	OFFSET 0.00000 0.00000 0.00000
	CHANNELS 6 Xposition Yposition Zposition Zrotation Yrotation Xrotation 
	JOINT LHipJoint
	{
		OFFSET 0 0 0
		CHANNELS 3 Zrotation Yrotation Xrotation
		JOINT LeftUpLeg
		{
			OFFSET 1.37590 -1.78394 0.89329
			CHANNELS 3 Zrotation Yrotation Xrotation
			JOINT LeftLeg
			{
				OFFSET 2.47928 -6.81178 0.00000
				CHANNELS 3 Zrotation Yrotation Xrotation
				JOINT LeftFoot
				{
					OFFSET 2.63345 -7.23535 0.00000
					CHANNELS 3 Zrotation Yrotation Xrotation
					JOINT LeftToeBase
					{
						OFFSET 0.23938 -0.65768 2.27012
						CHANNELS 3 Zrotation Yrotation Xrotation
						End Site
						{
							OFFSET 0.00000 -0.00000 1.18363
						}
					}
				}
			}
		}
	}
	JOINT RHipJoint
	{
		OFFSET 0 0 0
		CHANNELS 3 Zrotation Yrotation Xrotation
		JOINT RightUpLeg
		{
			OFFSET -1.33617 -1.78394 0.89329
			CHANNELS 3 Zrotation Yrotation Xrotation
			JOINT RightLeg
			{
				OFFSET -2.56922 -7.05888 0.00000
				CHANNELS 3 Zrotation Yrotation Xrotation
				JOINT RightFoot
				{
					OFFSET -2.56568 -7.04915 0.00000
					CHANNELS 3 Zrotation Yrotation Xrotation
					JOINT RightToeBase
					{
						OFFSET -0.27533 -0.75646 2.18105
						CHANNELS 3 Zrotation Yrotation Xrotation
						End Site
						{
							OFFSET -0.00000 -0.00000 1.15233
						}
					}
				}
			}
		}
	}
	JOINT LowerBack
	{
		OFFSET 0 0 0
		CHANNELS 3 Zrotation Yrotation Xrotation
		JOINT Spine
		{
			OFFSET 0.06190 2.15152 -0.00935
			CHANNELS 3 Zrotation Yrotation Xrotation
			JOINT Spine1
			{
				OFFSET 0.06334 2.15332 0.00872
				CHANNELS 3 Zrotation Yrotation Xrotation
				JOINT Neck
				{
					OFFSET 0 0 0
					CHANNELS 3 Zrotation Yrotation Xrotation
					JOINT Neck1
					{
						OFFSET -0.04202 1.66908 0.23524
						CHANNELS 3 Zrotation Yrotation Xrotation
						JOINT Head
						{
							OFFSET 0.07510 1.69357 -0.24440
							CHANNELS 3 Zrotation Yrotation Xrotation
							End Site
							{
								OFFSET 0.02556 1.71719 -0.11000
							}
						}
					}
				}
				JOINT LeftShoulder
				{
					OFFSET 0 0 0
					CHANNELS 3 Zrotation Yrotation Xrotation
					JOINT LeftArm
					{
						OFFSET 3.67168 1.26306 -0.41342
						CHANNELS 3 Zrotation Yrotation Xrotation
						JOINT LeftForeArm
						{
							OFFSET 4.68510 -0.00000 -0.00000
							CHANNELS 3 Zrotation Yrotation Xrotation
							JOINT LeftHand
							{
								OFFSET 3.39626 -0.00000 -0.00000
								CHANNELS 3 Zrotation Yrotation Xrotation
								JOINT LeftFingerBase
								{
									OFFSET 0 0 0
									CHANNELS 3 Zrotation Yrotation Xrotation
									JOINT LeftHandIndex1
									{
										OFFSET 0.48608 -0.00000 -0.00000
										CHANNELS 3 Zrotation Yrotation Xrotation
										End Site
										{
											OFFSET 0.39189 -0.00000 -0.00000
										}
									}
								}
								JOINT LThumb
								{
									OFFSET 0 0 0
									CHANNELS 3 Zrotation Yrotation Xrotation
									End Site
									{
										OFFSET 0.39787 -0.00000 0.39787
									}
								}
							}
						}
					}
				}
				JOINT RightShoulder
				{
					OFFSET 0 0 0
					CHANNELS 3 Zrotation Yrotation Xrotation
					JOINT RightArm
					{
						OFFSET -3.04136 1.42992 -0.76390
						CHANNELS 3 Zrotation Yrotation Xrotation
						JOINT RightForeArm
						{
							OFFSET -5.55576 -0.00000 -0.00000
							CHANNELS 3 Zrotation Yrotation Xrotation
							JOINT RightHand
							{
								OFFSET -3.32774 -0.00000 -0.00000
								CHANNELS 3 Zrotation Yrotation Xrotation
								JOINT RightFingerBase
								{
									OFFSET 0 0 0
									CHANNELS 3 Zrotation Yrotation Xrotation
									JOINT RightHandIndex1
									{
										OFFSET -0.50763 -0.00000 -0.00000
										CHANNELS 3 Zrotation Yrotation Xrotation
										End Site
										{
											OFFSET -0.40926 -0.00000 -0.00000
										}
									}
								}
								JOINT RThumb
								{
									OFFSET 0 0 0
									CHANNELS 3 Zrotation Yrotation Xrotation
									End Site
									{
										OFFSET -0.41551 -0.00000 0.41551
									}
								}
							}
						}
					}
				}
			}
		}
	}
}
MOTION
Frames: 9
Frame Time: 0.0350877
0.00 0.00 0.00 0 0 0 0 0 0 -21 0 0 0 0 0 0 0 0 0 0 0 0 0 0 21 0 0 0 0 0 0 0 0 0 0 0 0 0 0 0 0 0 0 0 0 0 0 -16 0 0 21 0 0 11 0 0 0 -8 0 0 0 0 0 0 0 0 0 0 0 0 0 0 0 0 0 0 0 0 8 0 0 0 0 0 0 0 0 0 0 0 0 0 0 0 0 0
0.00 0.00 0.00 -132.6300 -84.7862 141.7130 0.0000 0.0000 0.0000 -12.9162 -6.2052 -9.3353 0.4079 4.1001 11.3586 0.0845 6.1613 -10.7649 0.0189 0.8870 2.4379 0.0000 0.0000 0.0000 25.3388 8.2368 -11.6492 -0.8673 -5.9381 16.6051 -0.1120 -6.5450 -11.7489 -0.6898 -5.3095 14.7934 33.1203 6.6464 79.1068 57.5450 66.0173 47.8983 9.9930 77.4774 -152.6200 18.5945 24.8432 34.4251 -84.4194 65.6547 -69.6542 -22.9015 60.3761 75.0027 0.0000 0.0000 0.0000 107.6772 -71.4339 7.0936 26.0632 -37.2710 -8.9259 -0.0000 0.0000 -23.2748 2.4117 42.0805 1.6168 -7.1250 0.0000 -0.0000 -45.9434 66.5317 -26.0917 0.0000 0.0000 0.0000 -123.1466 72.8834 -6.4263 -22.7434 33.8070 -6.9950 0.0000 -0.0000 -32.9904 -9.5588 -48.1533 7.1502 7.1250 -0.0000 -0.0000 52.5437 -72.7144 -37.2109
0.00 0.00 0.00 -111.9080 -85.6052 122.2910 0.0000 0.0000 0.0000 -10.3536 -5.8689 -18.3798 2.0771 9.0248 25.8729 0.5737 2.0950 -15.2203 0.0243 -1.0069 -2.7678 0.0000 0.0000 0.0000 27.3310 7.2821 -13.5594 -1.2258 -7.0220 19.7805 -0.4095 -4.7718 -14.7886 -0.7488 -5.5271 15.4183 17.5461 24.1200 27.3120 13.3786 39.4010 10.3600 175.6905 64.3530 2.6230 4.8718 11.1634 15.5677 -6.3696 59.6160 -6.1783 -164.7451 63.1540 -11.5730 -0.0000 0.0000 0.0000 95.2025 -26.6360 26.4278 22.6786 -33.7355 -6.9590 -0.0000 0.0000 -26.1269 8.5287 48.7066 6.4286 -7.1250 0.0000 -0.0000 -54.9066 72.6370 -39.0562 -0.0000 0.0000 0.0000 -99.6825 30.7141 34.6551 -24.6276 35.8209 -8.0709 0.0000 -0.0000 -47.4958 -10.8925 -61.3872 9.5886 7.1250 -0.0000 -0.0000 85.5566 75.5436 100.3028
0.00 0.00 0.00 -106.6660 -85.0208 116.8520 0.0000 0.0000 0.0000 -9.1972 -5.5194 -21.5792 3.0325 10.7475 31.4330 0.6079 2.8086 -16.0143 0.1173 -2.2079 -6.0804 0.0000 0.0000 0.0000 28.3579 6.7120 -13.2100 -1.2142 -6.9899 19.6854 -0.4501 -4.0281 -14.7948 -0.8051 -5.7265 15.9930 18.2070 23.7868 28.8098 14.2715 40.2281 11.1188 175.3600 64.5660 2.6690 5.2942 11.7981 16.3788 -7.4733 61.1737 -7.1665 -162.1761 64.7970 -10.5140 -0.0000 0.0000 0.0000 95.4209 -28.7686 27.4416 22.7575 -33.8226 -7.0028 -0.0000 0.0000 -26.6578 8.2107 48.3967 6.1582 -7.1250 0.0000 -0.0000 -54.3094 72.3596 -38.2816 -0.0000 0.0000 0.0000 -99.5861 33.4682 35.6974 -26.4191 37.6196 -9.1423 0.0000 -0.0000 -49.5906 -54.1465 -69.0378 52.2651 7.1250 -0.0000 -0.0000 158.0709 72.0367 165.7033
0.00 0.00 0.00 -102.4730 -84.2164 111.9050 0.0000 0.0000 0.0000 -7.7458 -5.0954 -27.2636 5.1544 13.5556 41.4855 0.7489 2.1423 -17.2587 0.3007 -3.5259 -9.7464 0.0000 0.0000 0.0000 29.8303 5.2286 -11.9790 -1.1696 -6.8650 19.3160 -0.5218 -2.6656 -14.8763 -0.8113 -5.7480 16.0550 18.2856 23.7080 29.1495 14.4205 40.2480 11.2843 175.2234 63.2040 2.6310 5.4734 11.8513 16.3814 -7.3515 60.5696 -7.0215 -161.6265 63.6210 -10.0520 0.0000 0.0000 0.0000 95.4189 -30.6246 30.4519 23.0628 -34.1574 -7.1735 -0.0000 0.0000 -27.6744 7.0156 48.8307 5.2926 -7.1250 0.0000 -0.0000 -56.4328 72.1564 -39.8075 0.0000 0.0000 0.0000 -99.5605 37.7136 37.6521 -30.7641 41.5394 -11.9131 0.0000 -0.0000 -52.5115 -37.2158 -67.3803 35.0326 7.1250 -0.0000 -0.0000 139.3764 76.2324 149.2236
0.00 0.00 0.00 -121.3420 -82.1135 130.6900 0.0000 0.0000 0.0000 -6.6238 -6.4183 -35.0837 4.0600 12.2398 36.5858 0.3498 0.5315 -11.3770 0.3215 -3.6447 -10.0793 0.0000 0.0000 0.0000 31.4030 3.0065 -5.7558 -0.7595 -5.5655 15.5289 -0.8143 2.9240 -16.3123 -0.4225 -4.1719 11.5608 16.3877 25.1920 26.9994 12.9366 39.5721 10.3992 175.8342 59.6550 2.6240 5.9961 12.7496 16.2399 -7.4577 61.4456 -6.9734 -160.1435 67.5090 -7.9920 0.0000 0.0000 0.0000 94.3741 -35.8056 39.2403 27.6006 -38.7460 -9.8727 -0.0000 0.0000 -32.3831 5.2321 49.4448 3.9799 -7.1250 0.0000 -0.0000 -59.4476 71.8212 -41.9518 0.0000 0.0000 0.0000 -98.3087 58.3138 40.3418 -73.7068 58.9728 -45.9383 0.0000 -0.0000 -55.3243 -15.0894 -61.1668 13.2895 7.1250 -0.0000 -0.0000 88.2131 76.9131 101.6008
0.00 0.00 0.00 -125.0900 -81.3160 134.7780 0.0000 0.0000 0.0000 -6.2647 -7.8397 -35.3022 2.4427 9.7329 28.1161 0.1343 1.9717 -7.9424 0.2984 -3.5124 -9.7088 0.0000 0.0000 0.0000 31.4666 1.8165 -3.1100 -0.6607 -5.1987 14.4761 -0.8232 4.9309 -16.1929 -0.3669 -3.8907 10.7694 16.1587 25.7895 25.6797 12.2100 38.8803 9.6132 175.8797 59.0270 2.3300 6.9567 14.7502 17.0544 -9.1715 64.6197 -8.3662 -152.8707 74.4990 -1.7630 -0.0000 0.0000 0.0000 93.1650 -38.3182 42.8124 31.0369 -41.7658 -12.0944 -0.0000 0.0000 -36.1869 3.9977 50.0364 3.0661 -7.1250 0.0000 -0.0000 -61.9419 71.6538 -43.8768 -0.0000 0.0000 0.0000 -97.2597 64.7489 39.0966 -93.3362 59.9579 -62.8888 0.0000 -0.0000 -52.0574 -12.9338 -58.7983 11.1132 7.1250 -0.0000 -0.0000 90.6591 -76.5528 -76.8450
0.00 0.00 0.00 -129.8460 -80.6394 139.8180 0.0000 0.0000 0.0000 -6.4153 -9.6325 -33.4763 1.1749 6.8799 19.3600 -0.0612 5.3074 -5.1190 0.1917 -2.8197 -7.7773 0.0000 0.0000 0.0000 30.5825 0.3944 -0.4332 -0.7574 -5.5583 15.5081 -0.6985 6.8312 -14.9505 -0.2894 -3.4597 9.5613 16.1641 26.3591 24.3826 11.5773 38.2505 8.7996 175.8783 59.7740 1.9910 9.0302 18.2633 18.8003 -13.3761 69.4064 -11.8386 -103.7242 83.5155 44.7740 0.0000 -0.0000 0.0000 91.1471 -43.3274 46.4388 36.8436 -46.0846 -16.1272 -0.0000 0.0000 -41.7630 2.9042 51.2492 2.2657 -7.1250 0.0000 -0.0000 -66.0319 71.7674 -47.5590 0.0000 -0.0000 0.0000 -95.2991 66.0098 37.1404 -105.6239 59.0572 -73.4878 0.0000 -0.0000 -50.1673 -17.1902 -59.3272 14.9002 7.1250 -0.0000 -0.0000 94.8183 -77.8436 -82.5353
0.00 0.00 0.00 -145.2810 -81.2337 154.2770 0.0000 0.0000 0.0000 -11.2992 -10.8636 -28.2856 1.0003 6.3646 17.8462 -0.1536 7.0985 -4.2323 0.0092 0.6191 1.7013 0.0000 0.0000 0.0000 25.1062 0.5940 -2.7803 -2.8809 -10.4996 30.6103 0.0031 6.8834 -4.7478 -0.0850 -1.8809 5.1766 15.4271 26.4091 23.8611 11.3137 38.5423 8.7649 176.4938 64.0620 2.4180 12.5615 22.8462 21.3973 -21.0865 73.9123 -18.1630 -20.0510 75.2100 124.0470 0.0000 0.0000 0.0000 88.3381 -59.0710 50.4352 51.3607 -53.5298 -27.2646 -0.0000 0.0000 -48.2740 3.8701 56.2370 3.2189 -7.1250 0.0000 -0.0000 -81.1103 73.3977 -63.6168 0.0000 0.0000 0.0000 -95.4170 54.9002 35.0605 -102.7284 59.3789 -71.0001 0.0000 -0.0000 -51.8968 -30.4273 -62.6202 27.5440 7.1250 -0.0000 -0.0000 118.2603 79.8809 127.6484
